# xmcd
#
# Track frame offsets: 
#        150
#        15631
#        27601
#        38666
#        55658
#        72135
#        88005
#        103182
#        122158
#        136389
#        150442
#        161259
#
# Disc length: 2392 seconds
#
# Revision: 2
# Processed by: cddbd v1.5.2PL0 Copyright (c) Steve Scherf et al.
# Submitted via: ExactAudioCopyFreeDBPlugin 1.0
#
DISCID=9309560c
DTITLE=陳潔靈 - 星夜星塵
DYEAR=2005
DGENRE=CPop
TTITLE0=星夜星塵
TTITLE1=今晚夜
TTITLE2=風是冷
TTITLE3=前情舊愛
TTITLE4=下班車之戀
TTITLE5=相逢相知相愛
TTITLE6=為了明天
TTITLE7=誰能知
TTITLE8=他的眼光
TTITLE9=同心圓 
TTITLE10=白金升降機 
TTITLE11=別
EXTD=
EXTT0=
EXTT1=
EXTT2=
EXTT3=
EXTT4=
EXTT5=
EXTT6=
EXTT7=
EXTT8=
EXTT9=
EXTT10=
EXTT11=
PLAYORDER=
